<?xml version="1.0"?>
<svg xmlns="http://www.w3.org/2000/svg" xmlns:xlink="http://www.w3.org/1999/xlink" xmlns:svgjs="http://svgjs.com/svgjs" version="1.1" width="512" height="512" x="0" y="0" viewBox="0 0 512 512" style="enable-background:new 0 0 512 512" xml:space="preserve" class=""><g><g xmlns="http://www.w3.org/2000/svg"><path d="m247.873 208.812c1.878 2.62 4.903 4.173 8.127 4.173s6.249-1.554 8.127-4.173l94.576-131.92c2.185-3.047 2.481-7.06.769-10.395s-5.146-5.432-8.896-5.432h-47.285v-51.065c0-5.523-4.478-10-10-10h-74.582c-5.522 0-10 4.477-10 10v51.064h-47.285c-3.749 0-7.183 2.097-8.896 5.432s-1.416 7.348.769 10.395zm-29.164-127.748c5.522 0 10-4.477 10-10v-51.064h54.582v51.064c0 5.523 4.478 10 10 10h37.812l-75.103 104.758-75.103-104.758z" fill="#e6e6e6" data-original="#000000" style=""/><path d="m462.776 330.786-30.112-84.793c-1.417-3.988-5.191-6.653-9.424-6.653h-334.48c-4.232 0-8.007 2.665-9.424 6.653l-30.112 84.793c-1.087 3.062-.619 6.46 1.255 9.114s4.92 4.232 8.169 4.232h18.822v157.868c0 5.523 4.478 10 10 10h334.473c5.522 0 10-4.477 10-10v-157.867h21.41c3.249 0 6.295-1.578 8.169-4.232s2.341-6.053 1.254-9.115zm-366.956-71.446h236.719l-23.01 64.793h-236.718zm1.65 84.793h219.12c4.232 0 8.007-2.665 9.424-6.653l10.688-30.098v184.618h-31.62v-77.667c0-5.523-4.478-10-10-10h-155.019c-5.522 0-10 4.477-10 10v77.667h-32.593zm52.593 147.867v-67.667h135.019v67.667zm261.879 0h-55.24v-182.649l9.989 28.129c1.417 3.988 5.191 6.653 9.424 6.653h35.827zm-28.766-167.867-23.01-64.793h56.014l23.01 64.793z" fill="#e6e6e6" data-original="#000000" style=""/><path d="m243.546 448.167h-55.149c-5.522 0-10 4.477-10 10s4.478 10 10 10h55.149c5.522 0 10-4.477 10-10s-4.478-10-10-10z" fill="#e6e6e6" data-original="#000000" style=""/></g></g></svg>
